<svg width="24" height="24" viewBox="0 0 24 24" fill="none" xmlns="http://www.w3.org/2000/svg">
<path d="M20.6249 16.4374V7.5626C20.6249 7.42978 20.5896 7.29935 20.5227 7.18463C20.4557 7.06991 20.3595 6.97503 20.2439 6.90968L12.3689 2.45859C12.2563 2.39495 12.1292 2.36151 11.9999 2.36151C11.8706 2.36151 11.7434 2.39495 11.6308 2.45859L3.75584 6.90968C3.64021 6.97503 3.54401 7.06991 3.47708 7.18463C3.41015 7.29935 3.37488 7.42978 3.37488 7.5626V16.4374C3.37488 16.5702 3.41015 16.7007 3.47708 16.8154C3.54401 16.9301 3.64021 17.025 3.75584 17.0903L11.6308 21.5414C11.7434 21.605 11.8706 21.6385 11.9999 21.6385C12.1292 21.6385 12.2563 21.605 12.3689 21.5414L20.2439 17.0903C20.3595 17.025 20.4557 16.9301 20.5227 16.8154C20.5896 16.7007 20.6249 16.5702 20.6249 16.4374V16.4374Z" stroke="#1C1C1E" stroke-linecap="round" stroke-linejoin="round"/>
<path d="M11.9999 15.375C13.8638 15.375 15.3749 13.864 15.3749 12C15.3749 10.136 13.8638 8.625 11.9999 8.625C10.1359 8.625 8.62488 10.136 8.62488 12C8.62488 13.864 10.1359 15.375 11.9999 15.375Z" stroke="#1C1C1E" stroke-linecap="round" stroke-linejoin="round"/>
</svg>
